<?xml version="1.0" encoding="UTF-8"?>
<svg width="132px" height="58px" viewBox="0 0 132 58" version="1.1" xmlns="http://www.w3.org/2000/svg" xmlns:xlink="http://www.w3.org/1999/xlink">
    <title>mele-white-nav-logo</title>
    <defs>
        <polygon id="path-1" points="0 0 35.717328 0 35.717328 19.749348 0 19.749348"></polygon>
        <polygon id="path-3" points="0.0694608 0.1946016 30.30732 0.1946016 30.30732 13.3000496 0.0694608 13.3000496"></polygon>
        <polygon id="path-5" points="0 0 35.717328 0 35.717328 19.749348 0 19.749348"></polygon>
        <polygon id="path-7" points="0.0694608 0.1946016 30.30732 0.1946016 30.30732 13.3000496 0.0694608 13.3000496"></polygon>
        <polygon id="path-9" points="0 58 131.22732 58 131.22732 0 0 0"></polygon>
    </defs>
    <g id="Page-1" stroke="none" stroke-width="1" fill="none" fill-rule="evenodd">
        <g id="mele-white-nav-logo">
            <polygon id="Fill-1" fill="#FFFFFF" points="0.006496 58 129.974752 58 129.974752 38.764648 0.006496 38.764648"></polygon>
            <g id="Group-72">
                <path d="M70.3581296,26.346384 L70.3581296,31.629024 C70.3581296,33.199432 71.1636336,33.825368 73.0941056,33.825368 L83.7818816,33.825368 L83.7818816,31.728552 L74.7039536,31.728552 C74.3434256,31.728552 74.1629296,31.567544 74.1629296,31.247384 L74.1629296,30.040056 L83.7818816,30.040056 L83.7818816,27.940456 L74.1629296,27.940456 L74.1629296,26.736376 C74.1629296,26.41552 74.3434256,26.256368 74.7039536,26.256368 L83.7818816,26.256368 L83.7818816,24.150736 L73.0941056,24.150736 C71.1636336,24.150736 70.3581296,24.776672 70.3581296,26.346384 L70.3581296,26.346384 Z M46.9094256,26.346384 L46.9094256,33.8256 L50.7146896,33.8256 L50.7146896,30.040056 L60.3331776,30.040056 L60.3331776,27.940456 L50.7146896,27.940456 L50.7146896,26.736376 C50.7146896,26.41552 50.8949536,26.256368 51.2557136,26.256368 L60.3331776,26.256368 L60.3331776,24.150736 L49.6458656,24.150736 C47.7146976,24.150736 46.9094256,24.776672 46.9094256,26.346384 L46.9094256,26.346384 Z M23.4607216,26.346384 L23.4607216,33.8256 L27.2657536,33.8256 L27.2657536,30.040056 L36.8844736,30.040056 L36.8844736,27.940456 L27.2657536,27.940456 L27.2657536,26.736376 C27.2657536,26.41552 27.4460176,26.256368 27.8067776,26.256368 L36.8844736,26.256368 L36.8844736,24.150736 L26.1969296,24.150736 C24.2659936,24.150736 23.4607216,24.776672 23.4607216,26.346384 L23.4607216,26.346384 Z M93.8124016,26.346384 L93.8124016,31.629024 C93.8124016,33.199664 94.6162816,33.8256 96.5465216,33.8256 L107.237082,33.8256 L107.237082,31.728552 L98.1577616,31.728552 C97.7974656,31.728552 97.6174336,31.567544 97.6174336,31.247384 L97.6174336,26.736376 C97.6174336,26.41552 97.7974656,26.256136 98.1577616,26.256136 L107.237082,26.256136 L107.237082,24.150272 L96.5465216,24.150272 C94.6162816,24.150272 93.8124016,24.77644 93.8124016,26.346384 L93.8124016,26.346384 Z M115.195146,24.152824 L115.195146,26.256368 L120.68241,26.256368 L120.68241,33.8256 L124.488602,33.8256 L124.488602,26.256368 L129.974706,26.256368 L129.974706,24.152824 L115.195146,24.152824 Z M0.0064496,26.346384 L0.0064496,31.629024 C0.0064496,33.199432 0.8117216,33.825368 2.7426576,33.825368 L13.4302016,33.825368 L13.4302016,31.728552 L4.3525056,31.728552 C3.9917456,31.728552 3.8114816,31.567544 3.8114816,31.247384 L3.8114816,30.040056 L13.4302016,30.040056 L13.4302016,27.940456 L3.8114816,27.940456 L3.8114816,26.736376 C3.8114816,26.41552 3.9917456,26.256368 4.3525056,26.256368 L13.4302016,26.256368 L13.4302016,24.150736 L2.7426576,24.150736 C0.8117216,24.150736 0.0064496,24.776672 0.0064496,26.346384 L0.0064496,26.346384 Z" id="Fill-2" fill="#FFFFFF"></path>
                <path d="M51.970088,7.8535712 L53.194584,5.7495632 L54.272224,7.6006912 C56.792904,7.3389952 59.365552,7.1160432 61.987384,6.9339232 L57.581008,0.0015312 L48.809088,0.0015312 L43.0592,9.0472112 C45.952936,8.6001472 48.925784,8.2015712 51.970088,7.8535712" id="Fill-4" fill="#FFFFFF"></path>
                <g id="Group-8">
                    <mask id="mask-2" fill="white">
                        <use xlink:href="#path-1"></use>
                    </mask>
                    <g id="Clip-7"></g>
                    <path d="M8.136936,17.148628 L7.770608,9.005428 L11.556152,16.128292 C16.143024,14.787796 21.022216,13.487436 26.197904,12.295652 L27.946488,9.005428 L27.815176,11.927004 C30.377152,11.355356 33.01244,10.81294 35.717328,10.305092 L35.717328,-0.000116 L24.988952,-0.000116 L17.858664,13.765372 L10.728376,-0.000116 L0,-0.000116 L0,19.749348 C2.595384,18.885612 5.306304,18.012828 8.136936,17.148628" id="Fill-6" fill="#FFFFFF" mask="url(#mask-2)"></path>
                </g>
                <path d="M77.808856,6.3837352 C77.973808,5.4715112 79.480416,5.2634072 80.762448,5.2457752 L80.762448,5.2415992 L98.658696,5.2415992 L98.658696,0.0014152 L80.341368,0.0014152 C75.593952,0.0014152 69.563112,1.0080632 69.553368,6.5368552 C72.255472,6.4394152 75.004672,6.3839672 77.808856,6.3837352" id="Fill-9" fill="#FFFFFF"></path>
                <path d="M109.118439,6.3836192 C109.283159,5.4713952 110.789999,5.2632912 112.071799,5.2456592 L112.071799,5.2417152 L129.968279,5.2417152 L129.968279,0.0012992 L111.650719,0.0012992 C106.948311,0.0012992 100.990087,0.9914752 100.868287,6.3836192 L109.118439,6.3836192 Z" id="Fill-11" fill="#FFFFFF"></path>
                <g id="Group-15" transform="translate(100.920000, 7.656000)">
                    <mask id="mask-4" fill="white">
                        <use xlink:href="#path-3"></use>
                    </mask>
                    <g id="Clip-14"></g>
                    <path d="M19.6310048,0.2045776 L11.1518688,0.1990096 C11.0903888,0.1980816 11.0272848,0.1962256 10.9648768,0.1946016 L0.0694608,0.1946016 C0.9443328,4.5559696 6.2863648,5.4259696 10.6189648,5.4405856 L19.0976368,5.4466176 C20.4555328,5.4654096 22.0679328,5.6932336 22.0679328,6.7490656 C22.0679328,7.8058256 20.4555328,8.0368976 19.0976368,8.0559216 L19.0976368,8.0598656 L1.2013888,8.0598656 L1.2013888,13.3000496 L19.5187168,13.3000496 C24.2698448,13.3000496 30.3074128,12.2922416 30.3074128,6.7518496 C30.3074128,1.2548416 24.3642688,0.2205856 19.6310048,0.2045776" id="Fill-13" fill="#FFFFFF" mask="url(#mask-4)"></path>
                </g>
                <path d="M11.9565376,16.8813872 L14.1220256,20.9560032 L21.5952096,20.9560032 L25.6308496,13.3624112 C20.7270656,14.4674272 16.1930896,15.6643152 11.9565376,16.8813872" id="Fill-16" fill="#FFFFFF"></path>
                <path d="M89.2416536,7.8605776 L77.8335176,7.8506016 C75.0455736,7.8506016 72.3372056,7.8916656 69.7014536,7.9684576 C70.6470856,12.2296016 75.9357576,13.0822016 80.2296136,13.0965856 L88.7080536,13.1026176 C90.0661816,13.1214096 91.6783496,13.3492336 91.6783496,14.4050656 C91.6783496,15.4618256 90.0661816,15.6928976 88.7080536,15.7119216 L88.7080536,15.7158656 L70.8118056,15.7158656 L70.8118056,20.8161536 L62.8291496,8.2575296 C60.1323816,8.4074016 57.5172776,8.5955536 54.9803576,8.8180416 L56.2746856,11.0417616 L50.1150856,11.0417616 L51.1975976,9.1818176 C48.1055016,9.5038336 45.1317256,9.8752656 42.2695416,10.2891536 L35.7173976,20.5976096 L35.7173976,11.3389536 C32.9633256,11.8233696 30.3189896,12.3444416 27.7718616,12.8914976 L27.4092456,20.9574416 L44.3450136,20.9560496 L47.0633576,16.2854256 L59.3266456,16.2854256 L62.0442936,20.9560496 L89.1293656,20.9560496 C93.8804936,20.9560496 99.9180616,19.9482416 99.9180616,14.4078496 C99.9180616,8.9108416 93.9749176,7.8765856 89.2416536,7.8605776" id="Fill-18" fill="#FFFFFF"></path>
                <polygon id="Fill-20" fill="#FFFFFF" points="127.835898 33.8255536 127.536154 33.8255536 127.536154 32.6920016 127.093498 32.6920016 127.093498 32.4511856 128.281106 32.4511856 128.281106 32.6920016 127.835898 32.6920016"></polygon>
                <polygon id="Fill-22" fill="#FFFFFF" points="129.548034 32.4480536 129.197482 33.5024936 129.197018 33.4999416 129.195858 33.5024936 128.84577 32.4480536 128.422602 32.4480536 128.422602 33.8254376 128.70657 33.8254376 128.684298 32.7542936 129.035778 33.8254376 129.358026 33.8254376 129.709506 32.7542936 129.68677 33.8254376 129.97097 33.8254376 129.97097 32.4480536"></polygon>
                <path d="M70.3581296,26.346384 L70.3581296,31.629024 C70.3581296,33.199432 71.1636336,33.825368 73.0941056,33.825368 L83.7818816,33.825368 L83.7818816,31.728552 L74.7039536,31.728552 C74.3434256,31.728552 74.1629296,31.567544 74.1629296,31.247384 L74.1629296,30.040056 L83.7818816,30.040056 L83.7818816,27.940456 L74.1629296,27.940456 L74.1629296,26.736376 C74.1629296,26.41552 74.3434256,26.256368 74.7039536,26.256368 L83.7818816,26.256368 L83.7818816,24.150736 L73.0941056,24.150736 C71.1636336,24.150736 70.3581296,24.776672 70.3581296,26.346384 L70.3581296,26.346384 Z M46.9094256,26.346384 L46.9094256,33.8256 L50.7146896,33.8256 L50.7146896,30.040056 L60.3331776,30.040056 L60.3331776,27.940456 L50.7146896,27.940456 L50.7146896,26.736376 C50.7146896,26.41552 50.8949536,26.256368 51.2557136,26.256368 L60.3331776,26.256368 L60.3331776,24.150736 L49.6458656,24.150736 C47.7146976,24.150736 46.9094256,24.776672 46.9094256,26.346384 L46.9094256,26.346384 Z M23.4607216,26.346384 L23.4607216,33.8256 L27.2657536,33.8256 L27.2657536,30.040056 L36.8844736,30.040056 L36.8844736,27.940456 L27.2657536,27.940456 L27.2657536,26.736376 C27.2657536,26.41552 27.4460176,26.256368 27.8067776,26.256368 L36.8844736,26.256368 L36.8844736,24.150736 L26.1969296,24.150736 C24.2659936,24.150736 23.4607216,24.776672 23.4607216,26.346384 L23.4607216,26.346384 Z M93.8124016,26.346384 L93.8124016,31.629024 C93.8124016,33.199664 94.6162816,33.8256 96.5465216,33.8256 L107.237082,33.8256 L107.237082,31.728552 L98.1577616,31.728552 C97.7974656,31.728552 97.6174336,31.567544 97.6174336,31.247384 L97.6174336,26.736376 C97.6174336,26.41552 97.7974656,26.256136 98.1577616,26.256136 L107.237082,26.256136 L107.237082,24.150272 L96.5465216,24.150272 C94.6162816,24.150272 93.8124016,24.77644 93.8124016,26.346384 L93.8124016,26.346384 Z M115.195146,24.152824 L115.195146,26.256368 L120.68241,26.256368 L120.68241,33.8256 L124.488602,33.8256 L124.488602,26.256368 L129.974706,26.256368 L129.974706,24.152824 L115.195146,24.152824 Z M0.0064496,26.346384 L0.0064496,31.629024 C0.0064496,33.199432 0.8117216,33.825368 2.7426576,33.825368 L13.4302016,33.825368 L13.4302016,31.728552 L4.3525056,31.728552 C3.9917456,31.728552 3.8114816,31.567544 3.8114816,31.247384 L3.8114816,30.040056 L13.4302016,30.040056 L13.4302016,27.940456 L3.8114816,27.940456 L3.8114816,26.736376 C3.8114816,26.41552 3.9917456,26.256368 4.3525056,26.256368 L13.4302016,26.256368 L13.4302016,24.150736 L2.7426576,24.150736 C0.8117216,24.150736 0.0064496,24.776672 0.0064496,26.346384 L0.0064496,26.346384 Z" id="Fill-24" fill="#FFFFFF"></path>
                <path d="M51.970088,7.8535712 L53.194584,5.7495632 L54.272224,7.6006912 C56.792904,7.3389952 59.365552,7.1160432 61.987384,6.9339232 L57.581008,0.0015312 L48.809088,0.0015312 L43.0592,9.0472112 C45.952936,8.6001472 48.925784,8.2015712 51.970088,7.8535712" id="Fill-26" fill="#FFFFFF"></path>
                <g id="Group-30">
                    <mask id="mask-6" fill="white">
                        <use xlink:href="#path-5"></use>
                    </mask>
                    <g id="Clip-29"></g>
                    <path d="M8.136936,17.148628 L7.770608,9.005428 L11.556152,16.128292 C16.143024,14.787796 21.022216,13.487436 26.197904,12.295652 L27.946488,9.005428 L27.815176,11.927004 C30.377152,11.355356 33.01244,10.81294 35.717328,10.305092 L35.717328,-0.000116 L24.988952,-0.000116 L17.858664,13.765372 L10.728376,-0.000116 L0,-0.000116 L0,19.749348 C2.595384,18.885612 5.306304,18.012828 8.136936,17.148628" id="Fill-28" fill="#FFFFFF" mask="url(#mask-6)"></path>
                </g>
                <path d="M77.808856,6.3837352 C77.973808,5.4715112 79.480416,5.2634072 80.762448,5.2457752 L80.762448,5.2415992 L98.658696,5.2415992 L98.658696,0.0014152 L80.341368,0.0014152 C75.593952,0.0014152 69.563112,1.0080632 69.553368,6.5368552 C72.255472,6.4394152 75.004672,6.3839672 77.808856,6.3837352" id="Fill-31" fill="#FFFFFF"></path>
                <path d="M109.118439,6.3836192 C109.283159,5.4713952 110.789999,5.2632912 112.071799,5.2456592 L112.071799,5.2417152 L129.968279,5.2417152 L129.968279,0.0012992 L111.650719,0.0012992 C106.948311,0.0012992 100.990087,0.9914752 100.868287,6.3836192 L109.118439,6.3836192 Z" id="Fill-33" fill="#FFFFFF"></path>
                <path d="M4.64e-05,20.5400504 L4.64e-05,20.9574184 L8.3081984,20.9574184 L8.1747984,17.9943144 C5.3232864,18.8524824 2.6067984,19.7092584 4.64e-05,20.5400504" id="Fill-35" fill="#FFFFFF"></path>
                <g id="Group-39" transform="translate(100.920000, 7.656000)">
                    <mask id="mask-8" fill="white">
                        <use xlink:href="#path-7"></use>
                    </mask>
                    <g id="Clip-38"></g>
                    <path d="M19.6310048,0.2045776 L11.1518688,0.1990096 C11.0903888,0.1980816 11.0272848,0.1962256 10.9648768,0.1946016 L0.0694608,0.1946016 C0.9443328,4.5559696 6.2863648,5.4259696 10.6189648,5.4405856 L19.0976368,5.4466176 C20.4555328,5.4654096 22.0679328,5.6932336 22.0679328,6.7490656 C22.0679328,7.8058256 20.4555328,8.0368976 19.0976368,8.0559216 L19.0976368,8.0598656 L1.2013888,8.0598656 L1.2013888,13.3000496 L19.5187168,13.3000496 C24.2698448,13.3000496 30.3074128,12.2922416 30.3074128,6.7518496 C30.3074128,1.2548416 24.3642688,0.2205856 19.6310048,0.2045776" id="Fill-37" fill="#FFFFFF" mask="url(#mask-8)"></path>
                </g>
                <path d="M11.9565376,16.8813872 L14.1220256,20.9560032 L21.5952096,20.9560032 L25.6308496,13.3624112 C20.7270656,14.4674272 16.1930896,15.6643152 11.9565376,16.8813872" id="Fill-40" fill="#FFFFFF"></path>
                <path d="M89.2416536,7.8605776 L77.8335176,7.8506016 C75.0455736,7.8506016 72.3372056,7.8916656 69.7014536,7.9684576 C70.6470856,12.2296016 75.9357576,13.0822016 80.2296136,13.0965856 L88.7080536,13.1026176 C90.0661816,13.1214096 91.6783496,13.3492336 91.6783496,14.4050656 C91.6783496,15.4618256 90.0661816,15.6928976 88.7080536,15.7119216 L88.7080536,15.7158656 L70.8118056,15.7158656 L70.8118056,20.8161536 L62.8291496,8.2575296 C60.1323816,8.4074016 57.5172776,8.5955536 54.9803576,8.8180416 L56.2746856,11.0417616 L50.1150856,11.0417616 L51.1975976,9.1818176 C48.1055016,9.5038336 45.1317256,9.8752656 42.2695416,10.2891536 L35.7173976,20.5976096 L35.7173976,11.3389536 C32.9633256,11.8233696 30.3189896,12.3444416 27.7718616,12.8914976 L27.4092456,20.9574416 L44.3450136,20.9560496 L47.0633576,16.2854256 L59.3266456,16.2854256 L62.0442936,20.9560496 L89.1293656,20.9560496 C93.8804936,20.9560496 99.9180616,19.9482416 99.9180616,14.4078496 C99.9180616,8.9108416 93.9749176,7.8765856 89.2416536,7.8605776" id="Fill-42" fill="#FFFFFF"></path>
                <polygon id="Fill-44" fill="#000000" points="7.9794776 52.3341192 7.9794776 53.0554072 4.9456136 53.0554072 4.9456136 43.7090552 5.7989096 43.7090552 5.7989096 52.3341192"></polygon>
                <polygon id="Fill-46" fill="#000000" points="13.0269392 44.4304824 13.0269392 48.0267144 15.0346672 48.0267144 15.0346672 48.7377944 13.0269392 48.7377944 13.0269392 52.3340264 15.0550832 52.3340264 15.0550832 53.0555464 12.1736432 53.0555464 12.1736432 43.7091944 15.0550832 43.7091944 15.0550832 44.4304824"></polygon>
                <polygon id="Fill-48" fill="#000000" points="27.8019984 44.4304824 27.8019984 48.0267144 29.8097264 48.0267144 29.8097264 48.7377944 27.8019984 48.7377944 27.8019984 52.3340264 29.8301424 52.3340264 29.8301424 53.0555464 26.9487024 53.0555464 26.9487024 43.7091944 29.8301424 43.7091944 29.8301424 44.4304824"></polygon>
                <polygon id="Fill-50" fill="#000000" points="34.0164896 43.7091248 35.1846096 43.7091248 37.4463776 51.5126768 37.4463776 43.7091248 38.2184736 43.7091248 38.2184736 53.0554768 37.0503536 53.0554768 34.8090016 45.5442448 34.8090016 53.0554768 34.0164896 53.0554768"></polygon>
                <polygon id="Fill-52" fill="#000000" points="120.828082 43.7091248 121.996202 43.7091248 124.25797 51.5126768 124.25797 43.7091248 125.030066 43.7091248 125.030066 53.0554768 123.861714 53.0554768 121.620362 45.5442448 121.620362 53.0554768 120.828082 53.0554768"></polygon>
                <path d="M45.2556832,45.3446784 C45.2556832,44.6233904 45.0728672,44.4305984 44.4531952,44.4305984 L43.2581632,44.4305984 L43.2581632,52.3341424 L44.4531952,52.3341424 C45.0728672,52.3341424 45.2556832,52.1411184 45.2556832,51.4198304 L45.2556832,45.3446784 Z M46.1089792,45.3548864 L46.1089792,51.4098544 C46.1089792,52.5371424 45.8753552,53.0554304 44.6258032,53.0554304 L42.4048672,53.0554304 L42.4048672,43.7090784 L44.6258032,43.7090784 C45.8753552,43.7090784 46.1089792,44.2271344 46.1089792,45.3548864 L46.1089792,45.3548864 Z" id="Fill-54" fill="#000000"></path>
                <path d="M53.304088,50.2821488 L52.613192,44.4809888 L51.977048,44.4809888 L51.286152,50.2821488 L53.304088,50.2821488 Z M53.395496,51.0032048 L51.194744,51.0032048 L50.950912,53.0554768 L50.12824,53.0554768 L51.275944,43.7091248 L53.314064,43.7091248 L54.462232,53.0554768 L53.639328,53.0554768 L53.395496,51.0032048 Z" id="Fill-56" fill="#000000"></path>
                <path d="M60.7024984,49.2966128 C61.1595384,49.2557808 61.3017544,49.0223888 61.3017544,48.3823008 L61.3017544,45.3347488 C61.3017544,44.6232048 60.8781224,44.4202048 60.2686584,44.4202048 L59.3346264,44.4202048 L59.3346264,49.3068208 L60.7024984,49.2966128 Z M61.5049864,53.0554768 L60.8038824,49.9673248 L59.3346264,49.9673248 L59.3346264,53.0554768 L58.4813304,53.0554768 L58.4813304,43.7091248 L60.6718744,43.7091248 C61.9114504,43.7091248 62.1348664,44.2269488 62.1348664,45.3549328 L62.1348664,48.3621168 C62.1348664,49.0729648 61.9418424,49.5202608 61.5151944,49.7638608 L62.2773144,53.0554768 L61.5049864,53.0554768 Z" id="Fill-58" fill="#000000"></path>
                <polygon id="Fill-60" fill="#000000" points="69.7538856 43.7091248 68.1407896 49.3270048 68.1407896 53.0554768 67.3076776 53.0554768 67.3076776 49.3270048 65.6941176 43.7091248 66.5274616 43.7091248 67.6934936 47.9962528 67.7545096 47.9962528 68.9207736 43.7091248"></polygon>
                <polygon id="Fill-62" fill="#000000" points="80.0219272 44.4304824 80.0219272 48.0267144 82.0294232 48.0267144 82.0294232 48.7377944 80.0219272 48.7377944 80.0219272 52.3340264 82.0498392 52.3340264 82.0498392 53.0555464 79.1686312 53.0555464 79.1686312 43.7091944 82.0498392 43.7091944 82.0498392 44.4304824"></polygon>
                <path d="M89.0871416,45.3446784 C89.0871416,44.6233904 88.9043256,44.4305984 88.2844216,44.4305984 L87.0896216,44.4305984 L87.0896216,52.3341424 L88.2844216,52.3341424 C88.9043256,52.3341424 89.0871416,52.1411184 89.0871416,51.4198304 L89.0871416,45.3446784 Z M89.9404376,45.3548864 L89.9404376,51.4098544 C89.9404376,52.5371424 89.7068136,53.0554304 88.4572616,53.0554304 L86.2363256,53.0554304 L86.2363256,43.7090784 L88.4572616,43.7090784 C89.7068136,43.7090784 89.9404376,44.2271344 89.9404376,45.3548864 L89.9404376,45.3548864 Z" id="Fill-64" fill="#000000"></path>
                <mask id="mask-10" fill="white">
                    <use xlink:href="#path-9"></use>
                </mask>
                <g id="Clip-67"></g>
                <polygon id="Fill-66" fill="#000000" mask="url(#mask-10)" points="94.546496 53.055384 95.399792 53.055384 95.399792 43.709032 94.546496 43.709032"></polygon>
                <polygon id="Fill-68" fill="#000000" mask="url(#mask-10)" points="103.61229 44.4304824 101.957202 44.4304824 101.957202 53.0555464 101.103674 53.0555464 101.103674 44.4304824 99.4488184 44.4304824 99.4488184 43.7091944 103.61229 43.7091944"></polygon>
                <polygon id="Fill-69" fill="#000000" mask="url(#mask-10)" points="107.661456 53.055384 108.514752 53.055384 108.514752 43.709032 107.661456 43.709032"></polygon>
                <path d="M115.793659,51.5112384 C115.793659,52.1995824 115.301819,52.4234624 114.886307,52.4250864 C114.471027,52.4234624 113.979187,52.1995824 113.979187,51.5112384 L113.979187,45.2532704 C113.979187,44.5651584 114.471027,44.3410464 114.886307,44.3391904 C115.301819,44.3410464 115.793659,44.5651584 115.793659,45.2532704 L115.793659,51.5112384 Z M114.886307,43.6179024 C113.974083,43.6190624 113.125891,44.0060384 113.125891,45.2532704 L113.125891,51.5112384 C113.125891,52.7584704 113.974083,53.1452144 114.886307,53.1466064 C115.798531,53.1452144 116.646955,52.7584704 116.646955,51.5112384 L116.646955,45.2532704 C116.646955,44.0060384 115.798531,43.6190624 114.886307,43.6179024 L114.886307,43.6179024 Z" id="Fill-70" fill="#000000" mask="url(#mask-10)"></path>
                <path d="M22.762448,46.6449224 L22.762448,45.2533864 C22.762448,44.0061544 21.914024,43.6191784 21.002032,43.6177864 C20.089576,43.6191784 19.241384,44.0061544 19.241384,45.2533864 L19.241384,51.5113544 C19.241384,52.7585864 20.089576,53.1453304 21.002032,53.1464904 C21.914024,53.1453304 22.762448,52.7585864 22.762448,51.5113544 L22.762448,48.0267144 L21.055856,48.0267144 L21.055856,48.7377944 L21.909152,48.7377944 L21.909152,51.5113544 C21.909152,52.1994664 21.417312,52.4233464 21.002032,52.4252024 C20.58652,52.4233464 20.09468,52.1994664 20.09468,51.5113544 L20.09468,45.2533864 C20.09468,44.5650424 20.58652,44.3409304 21.002032,44.3393064 C21.417312,44.3409304 21.909152,44.5650424 21.909152,45.2533864 L21.909152,46.6449224 L22.762448,46.6449224 Z" id="Fill-71" fill="#000000" mask="url(#mask-10)"></path>
            </g>
        </g>
    </g>
</svg>